<?xml version="1.0" encoding="utf-8"?>
<!-- Generator: Adobe Illustrator 24.0.2, SVG Export Plug-In . SVG Version: 6.00 Build 0)  -->
<svg version="1.1" id="Layer_1" xmlns="http://www.w3.org/2000/svg" xmlns:xlink="http://www.w3.org/1999/xlink" x="0px" y="0px"
	 viewBox="0 0 460 460" style="enable-background:new 0 0 460 460;" xml:space="preserve">
<style type="text/css">
	.st0{fill:#FFFFFF;}
</style>
<g>
	<g>
		<g>
			<path class="st0" d="M427.1,0H32.9C14.7,0,0,14.7,0,32.9v394.3C0,445.3,14.7,460,32.9,460h394.3c18.2,0,32.9-14.7,32.9-32.9V32.9
				C460,14.7,445.3,0,427.1,0z M430,427.1c0,1.6-1.3,2.9-2.9,2.9H32.9c-1.6,0-2.9-1.3-2.9-2.9V32.9c0-1.6,1.3-2.9,2.9-2.9h394.3
				c1.6,0,2.9,1.3,2.9,2.9L430,427.1L430,427.1z"/>
			<path class="st0" d="M292.3,201.5c-2.8-4.3-7.5-6.9-12.6-6.9s-9.9,2.6-12.6,6.9l-72.3,113.5l-37-58.1c-2.8-4.3-7.5-6.9-12.6-6.9
				s-9.9,2.6-12.6,6.9l-77.1,121c-2.9,4.6-3.1,10.5-0.5,15.3c2.6,4.8,7.7,7.8,13.2,7.8h324.2c5.5,0,10.5-3,13.2-7.8
				s2.4-10.7-0.5-15.3L292.3,201.5z M95.3,371l49.7-78.1l37,58.1c2.8,4.3,7.5,6.9,12.6,6.9c5.1,0,9.9-2.6,12.6-6.9l72.3-113.5
				L364.7,371H95.3z"/>
			<path class="st0" d="M139,198c39.1,0,71-31.9,71-71s-31.9-71-71-71s-71,31.9-71,71C68,166.1,99.9,198,139,198z M139,86
				c22.6,0,41,18.4,41,41s-18.4,41-41,41s-41-18.4-41-41S116.4,86,139,86z"/>
		</g>
	</g>
</g>
</svg>
