<?xml version="1.0" encoding="utf-8"?>
<!-- Generator: Adobe Illustrator 24.0.2, SVG Export Plug-In . SVG Version: 6.00 Build 0)  -->
<svg version="1.1" id="圖層_1" xmlns="http://www.w3.org/2000/svg" xmlns:xlink="http://www.w3.org/1999/xlink" x="0px" y="0px"
	 viewBox="0 0 100 100" style="enable-background:new 0 0 100 100;" xml:space="preserve">
<style type="text/css">
	.st0{fill:none;stroke:#000000;stroke-width:6;stroke-linecap:round;stroke-linejoin:round;stroke-miterlimit:10;}
</style>
<g>
	<path d="M47.4,53.1c-3-2.2-5.9-4.6-8.8-7c-2.9-2.4-5.6-4.9-8.4-7.4c-2.7-2.5-5.5-5.1-8.1-7.7c-2.7-2.6-5.3-5.3-7.7-8.2
		c-0.7-0.8-0.6-2.1,0.2-2.9c0.7-0.6,1.6-0.7,2.4-0.2c3.2,1.9,6.3,4.1,9.4,6.2c3.1,2.1,6.1,4.4,9,6.6c3,2.3,5.9,4.6,8.7,7
		c2.9,2.4,5.7,4.8,8.4,7.4c1.6,1.5,1.6,4.1,0.1,5.7C51.3,54,49,54.2,47.4,53.1z"/>
</g>
<path class="st0" d="M49.8,27.8V12.5c20.7,0,37.5,16.8,37.5,37.5S70.5,87.5,49.8,87.5S12.3,70.7,12.3,50"/>
</svg>
