<?xml version="1.0" encoding="utf-8"?>
<!-- Generator: Adobe Illustrator 24.0.2, SVG Export Plug-In . SVG Version: 6.00 Build 0)  -->
<svg version="1.1" id="Слой_1" xmlns="http://www.w3.org/2000/svg" xmlns:xlink="http://www.w3.org/1999/xlink" x="0px" y="0px"
	 viewBox="0 0 1000 1000" style="enable-background:new 0 0 1000 1000;" xml:space="preserve">
<style type="text/css">
	.st0{fill:#FFFFFF;}
</style>
<g>
	<path class="st0" d="M536.5,227.3c-5-7.5-12.2-13.1-20.5-16c-4.4-1.8-9.2-2.7-14.4-2.7h-0.2l-1.4-0.1c-0.7,0-1.2,0.1-1.9,0.2
		c-5,0-9.7,0.9-13.8,2.5c-8.7,3-15.9,8.7-20.4,15.8l-301,301.7c-7,7-10.9,16.6-10.9,26.9c0,11.5,4.9,22.8,13.2,31.2
		c8.3,8.3,19,12.9,30.2,12.9c10.3,0,20-3.9,27.3-11.2c0.3-0.4,0.6-0.6,1-1c0.8-0.6,1.6-1.5,2-2.1L457.3,354l0.5,556.4
		c-0.2,1.2-0.2,2.3-0.1,3.4l0.1,1.3c0,20.9,18.3,37.3,41.7,37.3c23.6,0,42.7-16.7,42.7-37.3l0.4-561.1L774,585
		c0.7,0.9,1.6,1.7,2.5,2.5l1,1c7.2,7.3,16.9,11.2,27.2,11.2c11.2,0,21.9-4.6,30.2-12.9c16.7-16.6,17.7-42.7,2.4-58L536.5,227.3z"/>
	<path class="st0" d="M952,47.5H48c-21,0-38,17-38,37.9s17,38,38,38h904c20.9,0,38-17,38-38C990,64.6,973,47.5,952,47.5"/>
</g>
</svg>
